<?xml version="1.0" encoding="utf-8"?>
<!-- Generator: Adobe Illustrator 26.0.0, SVG Export Plug-In . SVG Version: 6.00 Build 0)  -->
<svg version="1.1" id="Layer_1" xmlns="http://www.w3.org/2000/svg" xmlns:xlink="http://www.w3.org/1999/xlink" x="0px" y="0px"
	 viewBox="0 0 1200 1200" style="enable-background:new 0 0 1200 1200;" xml:space="preserve">
<style type="text/css">
	.st0{fill:#D9043D;}
	.st1{fill:#033E8C;}
	.st2{fill:#F7F7F7;}
</style>
<g>
	<g>
		<path class="st0" d="M354.42,661.06v18.71h-1.58c-0.74-16.66-20.57-17.13-20.57-17.13h-1.77v52.69c0,6.33,4,9.68,7.91,9.68v1.58
			h-29.32v-1.58c3.91,0,7.91-3.35,7.91-9.68v-52.69h-1.77c0,0-19.74,0.46-20.48,17.13h-1.58v-18.71H354.42z"/>
		<path class="st0" d="M478.04,661.06v1.58c-4.28,0-10.43,2.23-18.99,22.25l-16.11,41.71h-1.58l-16.66-40.22l-14.9,40.22h-1.58
			l-23.37-56.42c-2.98-7.54-6.14-7.54-8.56-7.54v-1.58h29.7v1.58c-8.19,0-4.19,10.8-4.19,10.8l13.41,33.98l8.66-23.37l-5.31-13.87
			c-2.89-7.54-6.14-7.54-8.56-7.54v-1.58h29.7v1.58c-8.38,0-4.19,10.8-4.19,10.8l13.22,34.35l8.84-23.37c0,0,8.84-21.78-6.98-21.78
			v-1.58H478.04z"/>
		<path class="st0" d="M531.01,661.06v1.58c-4,0-7.91,2.51-7.91,8.29v44.41c0,6.33,4,9.68,7.91,9.68v1.58h-29.32v-1.58
			c4,0,7.91-3.35,7.91-9.68v-44.41c0-5.77-3.82-8.29-7.91-8.29v-1.58H531.01z"/>
		<path class="st0" d="M602.13,719.8c0,0-4.38,7.63-19.36,7.63c-18.06,0-25.51-5.77-25.51-5.77v-17.87h1.58
			c2.05,5.68,7.35,22.06,23.93,22.06c9.96,0,13.03-13.5,1.68-21.78l-14.34-9.03c-13.22-8.29-18.15-17.59-10.43-27.74
			c0,0,4.56-7.08,19.27-7.08c15.92,0,23.93,4.47,23.93,4.47v15.64h-1.58c-1.77-4.93-7.45-18.53-22.34-18.53
			c-10.05,0-13.68,12.29-1.58,20.2l14.34,9.5C603.99,699.6,609.11,709.66,602.13,719.8z"/>
		<path class="st0" d="M684.14,674.37v39.56c0,7.63-0.75,9.78,4.1,11.08v1.58h-19.36v-1.58c2.51-0.93,2.23-3.44,2.23-11.08v-17.78
			h-22.53v17.78c0,7.63-0.37,10.15,2.23,11.08v1.58h-19.46v-1.58c4.93-1.3,4.19-3.44,4.19-11.08v-39.56
			c0-7.17,0.28-10.89-4.19-11.73v-1.58h19.46v1.58c-2.61,0.84-2.23,4.56-2.23,11.73v19.92h22.53v-19.92
			c0-7.17,0.37-10.89-2.23-11.73v-1.58h19.36v1.58C683.86,663.48,684.14,667.21,684.14,674.37z"/>
		<path class="st0" d="M776.86,694.29c0,18.53-11.64,33.14-32.12,33.14c-20.48,0-32.12-14.62-32.12-33.14
			c0-18.43,11.64-34.07,32.12-34.07C765.22,660.22,776.86,675.86,776.86,694.29z M760.75,694.29c0-25.51-5.03-32.49-16.01-32.49
			c-11.08,0-16.2,6.98-16.2,32.49c0,25.6,5.12,31.56,16.2,31.56C755.72,725.85,760.75,719.9,760.75,694.29z"/>
		<path class="st0" d="M822.18,698.67v15.17c0,10.52,6.98,11.17,10.99,11.17v1.58h-30.63v-1.58c3.91,0,6.14-4.84,6.14-11.17v-40.5
			c0-5.77-2.61-10.71-6.7-10.71v-1.58h23.55c18.53,0,31.65,3.26,31.65,18.8s-13.13,18.81-31.65,18.81H822.18z M822.18,697.09h3.35
			c9.12,0,16.38-0.75,16.38-17.22c0-16.57-7.26-17.22-16.38-17.22h-3.35V697.09z"/>
	</g>
</g>
<g>
	<g>
		<path class="st1" d="M403.34,763.79h-4.7l-1.16,2.24h-2.47l6.31-11.76h2.74l2.14,11.76h-2.49L403.34,763.79z M403.04,761.96
			l-0.84-4.98l-2.59,4.98H403.04z"/>
		<path class="st1" d="M430.68,765.35c-0.76-0.53-1.14-1.28-1.14-2.25c0-0.1,0.01-0.25,0.03-0.45h2.41
			c-0.04,0.47,0.08,0.86,0.38,1.16c0.3,0.3,0.73,0.46,1.3,0.46s1.02-0.12,1.35-0.36s0.5-0.59,0.5-1.04c0-0.42-0.17-0.75-0.51-0.99
			c-0.34-0.25-0.88-0.52-1.61-0.82c-0.67-0.28-1.22-0.54-1.64-0.77c-0.42-0.24-0.78-0.56-1.08-0.98s-0.45-0.95-0.45-1.59
			c0-0.73,0.19-1.36,0.56-1.9c0.38-0.54,0.89-0.95,1.55-1.25s1.41-0.44,2.25-0.44c0.83,0,1.55,0.14,2.16,0.41
			c0.61,0.28,1.07,0.67,1.38,1.17s0.44,1.09,0.4,1.77h-2.51l0.02-0.18c0-0.37-0.14-0.67-0.41-0.91c-0.27-0.24-0.66-0.35-1.15-0.35
			c-0.53,0-0.95,0.12-1.28,0.37c-0.33,0.25-0.49,0.58-0.49,1.01c0,0.28,0.09,0.53,0.28,0.73c0.19,0.21,0.41,0.39,0.68,0.54
			c0.27,0.15,0.66,0.34,1.16,0.58c0.66,0.29,1.21,0.57,1.63,0.83c0.43,0.26,0.79,0.6,1.09,1.03c0.3,0.43,0.45,0.95,0.45,1.56
			c0,0.67-0.18,1.27-0.55,1.8c-0.36,0.53-0.88,0.94-1.55,1.24s-1.44,0.45-2.33,0.45C432.4,766.15,431.44,765.88,430.68,765.35z"/>
		<path class="st1" d="M459.63,754.28l-2.07,11.75h-2.37l0.89-5.03h-5.02l-0.89,5.03h-2.37l2.09-11.75h2.36l-0.86,4.86h5.03
			l0.86-4.86H459.63z"/>
		<path class="st1" d="M471.17,765.51c-0.76-0.42-1.34-1-1.76-1.75s-0.62-1.6-0.62-2.57c0-1.35,0.3-2.56,0.9-3.63
			c0.6-1.08,1.43-1.92,2.49-2.53c1.06-0.61,2.25-0.92,3.58-0.92c1,0,1.88,0.21,2.63,0.62s1.34,1,1.76,1.74s0.62,1.6,0.62,2.55
			c0,1.37-0.3,2.59-0.89,3.67s-1.42,1.92-2.49,2.53c-1.07,0.61-2.27,0.92-3.6,0.92C472.8,766.15,471.93,765.94,471.17,765.51z
			 M476.35,763.34c0.65-0.43,1.14-1,1.5-1.73s0.53-1.51,0.53-2.36c0-0.92-0.26-1.64-0.77-2.17s-1.24-0.79-2.17-0.79
			c-0.83,0-1.57,0.21-2.21,0.64c-0.65,0.43-1.14,1-1.5,1.72s-0.53,1.5-0.53,2.36c0,0.92,0.25,1.65,0.77,2.18
			c0.51,0.53,1.23,0.8,2.16,0.8C474.96,763.98,475.71,763.76,476.35,763.34z"/>
		<path class="st1" d="M499.15,759.68c-0.39,0.55-0.93,0.99-1.62,1.33c-0.69,0.34-1.52,0.5-2.48,0.5h-1.97l-0.79,4.51h-2.37
			l2.09-11.75h4.32c1.2,0,2.11,0.27,2.73,0.8c0.62,0.53,0.93,1.24,0.93,2.13c0,0.26-0.02,0.49-0.07,0.71
			C499.79,758.54,499.54,759.13,499.15,759.68z M496.79,759.2c0.37-0.31,0.61-0.74,0.71-1.28c0.02-0.1,0.03-0.25,0.03-0.44
			c0-0.89-0.55-1.33-1.65-1.33h-1.85l-0.62,3.52h1.87C495.92,759.67,496.42,759.51,496.79,759.2z"/>
		<path class="st1" d="M532.91,754.28l-5.32,7.66l-0.72,4.09h-2.37l0.74-4.09l-2.64-7.66h2.66l1.57,5.33l3.43-5.33H532.91z"/>
		<path class="st1" d="M543.48,765.51c-0.76-0.42-1.34-1-1.76-1.75s-0.62-1.6-0.62-2.57c0-1.35,0.3-2.56,0.9-3.63
			c0.6-1.08,1.43-1.92,2.49-2.53c1.06-0.61,2.25-0.92,3.58-0.92c1,0,1.88,0.21,2.63,0.62s1.34,1,1.76,1.74s0.62,1.6,0.62,2.55
			c0,1.37-0.3,2.59-0.89,3.67s-1.42,1.92-2.49,2.53c-1.07,0.61-2.27,0.92-3.6,0.92C545.11,766.15,544.24,765.94,543.48,765.51z
			 M548.67,763.34c0.65-0.43,1.14-1,1.5-1.73s0.53-1.51,0.53-2.36c0-0.92-0.26-1.64-0.77-2.17s-1.24-0.79-2.17-0.79
			c-0.83,0-1.57,0.21-2.21,0.64c-0.65,0.43-1.14,1-1.5,1.72s-0.53,1.5-0.53,2.36c0,0.92,0.25,1.65,0.77,2.18
			c0.51,0.53,1.23,0.8,2.16,0.8C547.28,763.98,548.02,763.76,548.67,763.34z"/>
		<path class="st1" d="M566.63,754.28l-1.28,7.25c-0.04,0.31-0.07,0.53-0.07,0.66c0,0.58,0.17,1.03,0.52,1.34s0.84,0.46,1.48,0.46
			c0.76,0,1.39-0.21,1.88-0.63c0.49-0.42,0.81-1.03,0.95-1.83l1.28-7.25h2.37l-1.28,7.25c-0.18,1.01-0.54,1.86-1.09,2.55
			c-0.55,0.69-1.21,1.21-1.99,1.55c-0.78,0.34-1.62,0.51-2.52,0.51c-1.19,0-2.15-0.31-2.89-0.93s-1.1-1.5-1.1-2.66
			c0-0.31,0.03-0.66,0.1-1.03l1.28-7.25H566.63z"/>
		<path class="st1" d="M597.1,757.03c0.68-0.91,1.51-1.63,2.51-2.14c0.99-0.51,2.05-0.77,3.17-0.77c1.31,0,2.41,0.34,3.28,1.01
			c0.88,0.67,1.4,1.6,1.58,2.79h-2.71c-0.18-0.54-0.49-0.95-0.92-1.22c-0.44-0.28-0.98-0.41-1.62-0.41c-0.68,0-1.32,0.16-1.91,0.47
			c-0.59,0.31-1.08,0.76-1.48,1.35c-0.4,0.58-0.67,1.26-0.8,2.02c-0.06,0.36-0.08,0.66-0.08,0.89c0,0.91,0.26,1.63,0.78,2.15
			c0.52,0.53,1.23,0.79,2.13,0.79c0.64,0,1.23-0.14,1.77-0.42c0.54-0.28,0.99-0.69,1.36-1.23h2.71c-0.61,1.2-1.46,2.13-2.57,2.8
			c-1.1,0.67-2.31,1-3.63,1c-0.99,0-1.86-0.2-2.62-0.6c-0.76-0.4-1.34-0.96-1.76-1.69s-0.62-1.57-0.62-2.51
			c0-0.39,0.03-0.79,0.1-1.2C595.98,758.98,596.42,757.95,597.1,757.03z"/>
		<path class="st1" d="M624.24,763.79h-4.7l-1.16,2.24h-2.47l6.31-11.76h2.74l2.14,11.76h-2.49L624.24,763.79z M623.93,761.96
			l-0.84-4.98l-2.59,4.98H623.93z"/>
		<path class="st1" d="M639.79,764.23h3.87l-0.32,1.8h-6.24l2.09-11.75h2.36L639.79,764.23z"/>
		<path class="st1" d="M655.93,764.23h3.87l-0.32,1.8h-6.24l2.09-11.75h2.36L655.93,764.23z"/>
		<path class="st1" d="M694.13,754.28l-2.07,11.75h-2.37l0.89-5.03h-5.02l-0.89,5.03h-2.37l2.09-11.75h2.36l-0.86,4.86h5.03
			l0.86-4.86H694.13z"/>
		<path class="st1" d="M705.66,765.51c-0.76-0.42-1.34-1-1.76-1.75c-0.42-0.75-0.62-1.6-0.62-2.57c0-1.35,0.3-2.56,0.9-3.63
			c0.6-1.08,1.43-1.92,2.49-2.53c1.06-0.61,2.25-0.92,3.58-0.92c1,0,1.88,0.21,2.63,0.62c0.76,0.42,1.34,1,1.76,1.74
			s0.62,1.6,0.62,2.55c0,1.37-0.3,2.59-0.89,3.67c-0.6,1.08-1.43,1.92-2.49,2.53c-1.07,0.61-2.27,0.92-3.6,0.92
			C707.29,766.15,706.42,765.94,705.66,765.51z M710.85,763.34c0.65-0.43,1.14-1,1.5-1.73s0.53-1.51,0.53-2.36
			c0-0.92-0.26-1.64-0.77-2.17c-0.52-0.53-1.24-0.79-2.17-0.79c-0.83,0-1.57,0.21-2.21,0.64c-0.65,0.43-1.14,1-1.5,1.72
			s-0.53,1.5-0.53,2.36c0,0.92,0.25,1.65,0.77,2.18s1.23,0.8,2.16,0.8C709.46,763.98,710.2,763.76,710.85,763.34z"/>
		<path class="st1" d="M739.3,754.28l-2.07,11.75h-2.37l1.35-7.61l-4.48,7.61h-1.8l-1.8-7.62l-1.35,7.62h-2.37l2.09-11.75h2.68
			l2.2,8.72l5.25-8.72H739.3z"/>
		<path class="st1" d="M752.07,756.12l-0.54,3.05h3.95l-0.32,1.82h-3.96l-0.56,3.18h4.46l-0.34,1.87h-6.83l2.09-11.76h6.82
			l-0.32,1.85H752.07z"/>
	</g>
</g>
<path class="st1" d="M484.03,601.35c-5.98,2.7-10.9,6.55-14.27,10.94c-4.34,5.67-6.11,12.21-4.27,18.29l34.91-10.54
	C494.32,614.4,488.83,608.14,484.03,601.35z"/>
<path class="st1" d="M644.51,495.44c2.42,4.44,4.38,9.16,5.89,14.05c5.98,19.58,3.88,40.34-5.89,58.38
	c-10.5,19.49-28.57,33.31-50.44,38.48c-5.71,1.34-10.6,1.89-16.04,1.97v0h-0.12c-0.06,0-0.12,0-0.18,0v0h-0.88h-0.88v0
	c-0.06,0-0.12,0-0.18,0h-0.12v0c-5.44-0.08-10.33-0.63-16.04-1.97c-21.86-5.17-39.94-18.99-50.44-38.48
	c-9.77-18.04-11.87-38.8-5.89-58.38c1.5-4.89,3.47-9.61,5.89-14.05c-24.28,17.68-31.63,55.88-22.37,78.77l0.05,0.05
	c3.19,6.71,7.17,13.14,11.96,19.22c8.54,10.88,19.49,19.85,31.82,26.15c15.09,7.74,30.84,11.32,46.2,11.37
	c15.36-0.05,31.12-3.63,46.2-11.37c12.33-6.3,23.28-15.27,31.82-26.15c4.79-6.07,8.76-12.51,11.96-19.22l0.05-0.05
	C676.14,551.33,668.79,513.12,644.51,495.44z"/>
<circle class="st1" cx="575.75" cy="528.04" r="20.33"/>
<path class="st1" d="M687.74,433.97l-125.99,38.11c-29.55,8.89-48.3,39.04-41.32,69.09c6.33,27.17,30.48,44.99,56.63,44.99
	c5.53,0,11.17-0.79,16.75-2.51c14.84-4.47,27.08-14.47,34.38-28.15c7.3-13.63,8.89-29.36,4.42-44.2
	c-3.67-12.19-11.12-22.57-21.21-29.92l23.12-7.03l24.2-7.31L672.2,463c10.05-3.02,16.56-12.28,16.56-22.29
	C688.77,438.48,688.44,436.2,687.74,433.97z M575.75,560.43c-17.9,0-32.39-14.49-32.39-32.39c0-17.9,14.49-32.39,32.39-32.39
	c0.51,0,1.02,0.01,1.52,0.04c0.25,0.01,0.5,0.03,0.76,0.05c0.22,0.02,0.45,0.03,0.67,0.05c0.39,0.03,0.77,0.08,1.15,0.13
	c0.04,0.01,0.08,0.01,0.12,0.02c11.71,1.53,21.45,9.3,25.77,19.86c0.04,0.1,0.08,0.21,0.12,0.31c0.18,0.46,0.35,0.92,0.51,1.38
	c0.06,0.19,0.13,0.37,0.19,0.56c0.14,0.44,0.28,0.89,0.4,1.34c0.04,0.16,0.09,0.31,0.13,0.47c0.15,0.59,0.29,1.18,0.41,1.78
	c0.04,0.18,0.06,0.36,0.1,0.53c0.08,0.45,0.16,0.9,0.22,1.35c0.03,0.22,0.06,0.44,0.08,0.66c0.05,0.44,0.09,0.88,0.13,1.32
	c0.02,0.21,0.03,0.41,0.05,0.62c0.04,0.61,0.06,1.23,0.06,1.85c0,0.02,0,0.05,0,0.07C608.14,545.93,593.65,560.43,575.75,560.43z"/>
<path class="st2" d="M580.5,508.31c-0.01,0.01-0.02,0.02-0.03,0.02c0,0,0,0,0,0c-1.91,1.24-2.92,3.62-2.29,5.97
	c0.78,2.91,3.79,4.64,6.7,3.86c2.67-0.72,4.33-3.28,3.99-5.92c0,0,0,0,0,0c0,0,0,0,0-0.01C586.66,509.99,583.69,508.57,580.5,508.31
	z"/>
</svg>
